<?xml version="1.0" encoding="iso-8859-1"?>
<!-- Generator: Adobe Illustrator 19.0.0, SVG Export Plug-In . SVG Version: 6.00 Build 0)  -->
<svg version="1.1" id="Layer_1" xmlns="http://www.w3.org/2000/svg" xmlns:xlink="http://www.w3.org/1999/xlink" x="0px" y="0px"
	 viewBox="0 0 512 512" style="enable-background:new 0 0 512 512;" xml:space="preserve">
<circle style="fill:#FFD15D;" cx="256" cy="256" r="256"/>
<path style="fill:#F9B54C;" d="M512,256c0-21.733-2.719-42.832-7.816-62.981l-90.015-90.015L255.714,251.116L101.279,388.31
	l121.554,121.554C233.693,511.269,244.76,512,256,512C397.384,512,512,397.384,512,256z"/>
<rect x="101.279" y="132.31" style="fill:#324A5E;" width="312.889" height="256"/>
<rect x="255.431" y="132.31" style="fill:#2B3B4E;" width="158.737" height="256"/>
<rect x="215.057" y="217.643" style="fill:#31BAFD;" width="170.667" height="142.222"/>
<rect x="255.431" y="217.643" style="fill:#2B9ED8;" width="130.293" height="142.222"/>
<g>
	<rect x="209.024" y="352.97" style="fill:#FC6F58;" width="182.734" height="10.343"/>
	<rect x="255.431" y="352.97" style="fill:#FC6F58;" width="136.326" height="10.343"/>
</g>
<rect x="129.724" y="217.643" style="fill:#31BAFD;" width="56.889" height="170.667"/>
<rect x="101.279" y="103.003" style="fill:#FD8469;" width="312.889" height="55.165"/>
<rect x="255.431" y="103.003" style="fill:#FC6F58;" width="158.737" height="55.165"/>
<g>
</g>
<g>
</g>
<g>
</g>
<g>
</g>
<g>
</g>
<g>
</g>
<g>
</g>
<g>
</g>
<g>
</g>
<g>
</g>
<g>
</g>
<g>
</g>
<g>
</g>
<g>
</g>
<g>
</g>
</svg>
